<?xml version="1.0" encoding="UTF-8"?>
<svg version="1.1" xmlns="http://www.w3.org/2000/svg" width="180" height="180">
<path d="M0 0 C5.68448759 4.51185262 9.30318981 9.29480643 10.39453125 16.6640625 C10.65284239 19.10940793 10.85677934 21.54549428 11 24 C11.8353125 23.93039063 11.8353125 23.93039063 12.6875 23.859375 C18.73582048 23.57330579 23.07650095 24.37266769 28 28 C34.02555963 33.62030075 37.85429201 38.63468526 38.3359375 47.06640625 C38.67213086 63.62806273 34.7541943 76.97469275 23.1875 89.3125 C11.32139092 100.47120642 -3.1084721 104.35547672 -19.046875 104.21484375 C-34.31950274 103.38480963 -45.32375145 97.65827507 -56 87 C-56.66257812 86.34902344 -57.32515625 85.69804688 -58.0078125 85.02734375 C-68.78836539 73.66342761 -70.66996081 59.54862326 -70.37890625 44.546875 C-69.86747695 33.74636812 -65.66315357 24.45707953 -59 16 C-58.23945312 15.02289063 -57.47890625 14.04578125 -56.6953125 13.0390625 C-44.77998793 -1.11872793 -16.71268453 -11.71610874 0 0 Z M-49.3359375 20.76171875 C-57.40314898 31.6126863 -60.9204563 43.32746239 -59.53125 56.76171875 C-57.4157178 69.65713197 -50.42652269 79.31519249 -40 87 C-29.23296669 93.71627809 -16.74406876 94.52490382 -4.4609375 92.3828125 C6.61316629 89.39624036 15.41272336 83.3553553 21.5625 73.61328125 C26.79365099 64.10338992 28.550327 54.79529171 27 44 C24.57638524 39.67462541 22.57257536 37.02044027 18 35 C15.67133979 34.63544936 13.33801141 34.29876113 11 34 C11.00169189 34.90540527 11.00169189 34.90540527 11.00341797 35.82910156 C10.89937728 59.55942571 10.89937728 59.55942571 4 68 C-2.0869863 73.589864 -9.40963139 76.58429372 -17.76171875 76.30859375 C-25.08781194 75.29853902 -31.61312094 72.62291773 -36.5625 67.04296875 C-41.26995631 60.3527523 -43.22302893 53.10729485 -42 45 C-40.19577306 37.87917534 -37.04273788 32.28692348 -31 28 C-21.67381185 22.55695781 -10.47005673 23.20509416 0 23 C-0.62388771 16.42205351 -1.16433866 13.61585855 -6 9 C-20.29774025 1.83890958 -39.17095067 9.89819017 -49.3359375 20.76171875 Z M-29.4375 40.6875 C-31.72186976 45.53036389 -32.86662451 49.94797454 -31.37109375 55.21484375 C-29.2554838 59.96832719 -26.77666948 62.70352429 -22 65 C-15.95041601 66.46360903 -11.45267248 66.15043299 -6 63 C-1.66076654 58.66076654 0.10477076 54.43987364 0.1953125 48.35546875 C0.18211123 46.63270365 0.15839656 44.90999196 0.125 43.1875 C0.11597656 42.30384766 0.10695312 41.42019531 0.09765625 40.50976562 C0.07419637 38.33972641 0.03832865 36.16982753 0 34 C-3.00099588 33.89109289 -5.99796378 33.81226445 -9 33.75 C-9.83917969 33.71648437 -10.67835937 33.68296875 -11.54296875 33.6484375 C-18.89681261 33.53442442 -24.4117282 35.14626443 -29.4375 40.6875 Z " fill="#FAFCFE" transform="translate(106,41)"/>
</svg>
