<svg width="15" height="15" viewBox="0 0 15 15" fill="none" xmlns="http://www.w3.org/2000/svg">
  <path d="M8 0C3.58 0 0 3.58 0 8C0 11.54 2.29 14.46 5.47 15.35C5.86 15.42 6 15.16 6 14.95V13.34C3.78 13.88 3.29 12.58 3.29 12.58C2.91 11.7 2.33 11.44 2.33 11.44C1.55 10.92 2.39 10.93 2.39 10.93C3.26 10.98 3.72 11.88 3.72 11.88C4.5 13.18 5.78 12.8 6.28 12.6C6.35 12.02 6.58 11.63 6.84 11.43C4.98 11.23 3.04 10.55 3.04 7.54C3.04 6.68 3.35 6 3.87 5.47C3.79 5.26 3.51 4.44 3.94 3.33C3.94 3.33 4.61 3.13 6 4.17C6.62 4 7.31 3.92 8 3.92C8.69 3.92 9.38 4 10 4.17C11.39 3.13 12.06 3.33 12.06 3.33C12.49 4.44 12.21 5.26 12.13 5.47C12.65 6 12.96 6.68 12.96 7.54C12.96 10.55 11.02 11.22 9.16 11.42C9.48 11.66 9.75 12.17 9.75 13C9.75 14.24 9.74 15.1 9.74 14.95C9.74 15.16 9.88 15.42 10.27 15.35C13.46 14.46 15.75 11.54 15.75 8C15.75 3.58 12.42 0 8 0Z" fill="white"/>
</svg>